<svg id="Layer_1" xmlns="http://www.w3.org/2000/svg" viewBox="0 0 148.13 52.6"><path class="cls-1" d="m138.63,51.1H9.5c0-4.42-3.58-8-8-8V9.5c4.42,0,8-3.58,8-8h129.13c0,4.42,3.58,8,8,8v33.6c-4.42,0-8,3.58-8,8Z"/><path class="cls-1" d="m138.63,51.1H9.5c0-4.42-3.58-8-8-8V9.5c4.42,0,8-3.58,8-8h129.13c0,4.42,3.58,8,8,8v33.6c-4.42,0-8,3.58-8,8Z"/><path class="cls-2" d="m12.81,47.1c-1.21-3.4-3.91-6.11-7.31-7.31V12.81c3.4-1.21,6.11-3.91,7.31-7.31h122.5c1.21,3.4,3.91,6.11,7.31,7.31v26.97c-3.4,1.21-6.11,3.91-7.31,7.31H12.81Z"/></svg>
