<?xml version="1.0" encoding="utf-8"?>
<!-- Generator: Adobe Illustrator 27.8.1, SVG Export Plug-In . SVG Version: 6.00 Build 0)  -->
<svg version="1.1" id="Layer_1" xmlns="http://www.w3.org/2000/svg" xmlns:xlink="http://www.w3.org/1999/xlink" x="0px" y="0px"
	 viewBox="0 0 313 311" style="enable-background:new 0 0 313 311;" xml:space="preserve">
<style type="text/css">
	.st0{fill:#FFFFFF;}
</style>
<path id="gear" class="st0" d="M313,137.7c0.1-3.7-1-5.4-4.7-6.1c-9.8-2-19.5-4.1-29.1-6.5c-1.8-0.5-3.8-2.4-4.5-4.1
	c-3.6-7.8-6.8-15.8-9.9-23.8c-0.6-1.6-0.6-4.2,0.3-5.6c5.1-8.5,10.5-16.9,16-25.2c1.8-2.8,2-4.6-0.6-7.2
	c-9.1-8.8-17.9-17.8-26.7-26.9c-2.4-2.5-4.3-2.7-7.2-0.8c-8.2,5.4-16.6,10.4-24.8,15.8c-2.6,1.8-4.6,2-7.6,0.5
	c-7-3.4-14.2-6.3-21.6-8.8c-3.3-1.1-4.7-2.7-5.3-6c-1.8-9.4-4.1-18.8-6-28.2c-0.7-3.3-2-4.9-5.6-4.8c-6.4,0.1-12.8,0.1-19.2,0.1
	s-12.8,0-19.2-0.1c-3.6,0-5,1.5-5.6,4.8c-1.9,9.4-4.1,18.8-6,28.2c-0.6,3.3-2,4.9-5.3,6c-7.3,2.5-14.6,5.4-21.6,8.8
	c-3,1.5-4.9,1.2-7.6-0.5C83,41.9,74.6,36.9,66.4,31.5c-2.9-1.9-4.8-1.8-7.2,0.8c-8.8,9.1-17.6,18.1-26.7,26.9
	c-2.6,2.6-2.5,4.4-0.6,7.2c5.5,8.3,10.9,16.7,16,25.2c0.9,1.4,0.9,4,0.3,5.6c-3.1,8-6.4,16-9.9,23.8c-0.8,1.7-2.8,3.7-4.5,4.1
	c-9.7,2.4-19.4,4.6-29.1,6.5c-3.7,0.7-4.8,2.5-4.7,6.1c0.1,5.9,0.2,11.9,0.2,17.8S0.1,167.4,0,173.3c-0.1,3.7,1,5.4,4.7,6.1
	c9.8,1.9,19.5,4.1,29.1,6.5c1.8,0.5,3.8,2.4,4.5,4.1c3.6,7.8,6.8,15.8,9.9,23.8c0.6,1.6,0.6,4.2-0.3,5.6c-5.1,8.5-10.5,16.9-16,25.2
	c-1.8,2.8-2,4.6,0.6,7.2c9.1,8.8,17.9,17.8,26.7,26.9c2.4,2.5,4.3,2.7,7.2,0.8c8.2-5.4,16.6-10.4,24.8-15.8c2.6-1.8,4.6-2,7.6-0.5
	c7,3.4,14.2,6.3,21.6,8.8c3.3,1.1,4.7,2.7,5.3,6c1.8,9.4,4.1,18.8,6,28.2c0.7,3.3,2,4.9,5.6,4.8c6.4-0.1,12.8-0.1,19.2-0.1
	s12.8,0,19.2,0.1c3.6,0,5-1.5,5.6-4.8c1.9-9.4,4.1-18.8,6-28.2c0.6-3.3,2-4.9,5.3-6c7.3-2.5,14.6-5.5,21.6-8.8
	c3-1.5,4.9-1.2,7.6,0.5c8.2,5.4,16.6,10.4,24.8,15.8c2.9,1.9,4.8,1.8,7.2-0.8c8.8-9.1,17.6-18.1,26.7-26.9c2.6-2.6,2.5-4.4,0.6-7.2
	c-5.5-8.3-10.9-16.7-16-25.2c-0.9-1.4-0.9-4-0.3-5.6c3.1-8,6.4-16,9.9-23.8c0.8-1.7,2.8-3.7,4.5-4.1c9.7-2.4,19.4-4.6,29.1-6.5
	c3.7-0.7,4.8-2.5,4.7-6.1c-0.1-5.9-0.2-11.9-0.2-17.8S312.9,143.6,313,137.7z M156.4,214.7c-33.7-0.1-60-26-60.2-59.2
	c0.2-33.2,26.5-59.1,60.2-59.2c33.7,0.1,60,26,60.2,59.2C216.4,188.7,190.1,214.6,156.4,214.7z"/>
</svg>
